<?xml version="1.0" encoding="utf-8"?>
<!-- Generator: Adobe Illustrator 22.0.0, SVG Export Plug-In . SVG Version: 6.00 Build 0)  -->
<svg version="1.1" id="Layer_1" xmlns="http://www.w3.org/2000/svg" xmlns:xlink="http://www.w3.org/1999/xlink" x="0px" y="0px"
	 viewBox="0 0 500 20" style="enable-background:new 0 0 500 20;" xml:space="preserve">
<g>
	<path d="M15.5,1.7c0,0.6,0.1,1.2,0.1,1.9c0.1,0.6,0.2,1.3,0.3,1.9L15,5.7c-0.2-1.2-0.8-2.1-1.7-2.6c-0.9-0.6-2.1-0.8-3.7-0.8
		c-2.2,0-3.9,0.6-5.1,1.9S2.7,7.3,2.7,9.6c0,2.5,0.7,4.5,2.1,6s3.2,2.3,5.4,2.3c0.5,0,1,0,1.4-0.1s1-0.2,1.5-0.4
		c0-0.6,0-1.2,0.1-1.6c0-0.4,0-0.8,0-1.1c0-1.4-0.2-2.3-0.5-2.6c-0.3-0.3-1-0.4-2.1-0.4h-0.2v-0.8c0.7,0,1.4,0.1,2,0.1
		c0.6,0,1.1,0,1.5,0c0.6,0,1.2,0,1.7,0c0.5,0,1,0,1.5-0.1v0.8c-0.7,0-1.2,0.1-1.4,0.4s-0.3,1.1-0.3,2.5v1.3c0,0.6,0,1.1,0,1.5
		c0,0.4,0,0.7,0.1,1c-0.3,0.1-0.7,0.1-1.2,0.3c-2.1,0.5-3.8,0.7-4.9,0.7c-2.9,0-5.2-0.8-6.9-2.5S0,12.9,0,10.1s0.9-5,2.8-6.8
		S7.1,0.7,10,0.7c0.9,0,1.8,0.1,2.7,0.2C13.7,1.1,14.6,1.4,15.5,1.7z"/>
	<path d="M120.9,1.1c0.6,0,1.2,0.1,1.7,0.1c0.5,0,1,0,1.5,0c0.5,0,1,0,1.6,0c0.5,0,1.1,0,1.6-0.1V2h-0.3c-0.7,0-1.1,0.2-1.4,0.5
		c-0.2,0.4-0.4,1.3-0.4,2.9V6v3.1c0.5,0,1.1,0,1.7,0c0.6,0,1.4,0,2.5,0c1.1,0,2.1,0,2.9,0s1.6,0,2.5,0V5.6c0-1.6-0.1-2.7-0.4-3
		C134.2,2.2,133.7,2,133,2h-0.3V1.1c0.6,0,1.1,0.1,1.6,0.1s1.1,0,1.6,0c0.4,0,0.9,0,1.5,0c0.5,0,1.1,0,1.7-0.1V2c0,0-0.1,0-0.2,0
		c-0.1,0-0.1,0-0.2,0c-0.6,0-1.1,0.2-1.3,0.6C137.2,3,137,3.8,137,5.1c0,0.2,0,0.7,0,1.4c0,0.7,0,1.3,0,1.7v3.3c0,0.4,0,1,0,1.7
		s0,1.2,0,1.4c0,1.4,0.1,2.2,0.3,2.7c0.2,0.4,0.7,0.6,1.3,0.6c0.1,0,0.2,0,0.3,0c0.1,0,0.1,0,0.2,0v0.9c-0.7,0-1.3-0.1-1.8-0.1
		c-0.6,0-1,0-1.4,0c-0.4,0-1,0-1.5,0s-1.2,0-1.8,0.1V18c0,0,0.1,0,0.2,0s0.2,0,0.2,0c0.7,0,1.1-0.2,1.4-0.6c0.2-0.4,0.4-1.3,0.4-2.7
		v-1.5v-2.7h-0.2c-2.1,0-3.7,0-4.7,0c-0.7,0-1.5,0-2.1,0c-0.1,0-0.1,0-0.1,0c-0.4,0-0.7,0-1.2,0s-0.9,0-1.3,0v3v1
		c0,1.6,0.1,2.6,0.4,3c0.2,0.4,0.7,0.6,1.4,0.6c0,0,0.1,0,0.2,0s0.2,0,0.2,0v0.9c-0.6,0-1.2-0.1-1.8-0.1c-0.6,0-1.1,0-1.5,0
		c-0.4,0-0.9,0-1.4,0c-0.6,0-1.2,0-1.8,0.1V18c0,0,0.1,0,0.2,0c0.1,0,0.1,0,0.3,0c0.6,0,1.1-0.2,1.3-0.6c0.2-0.4,0.3-1.3,0.3-2.7
		c0-0.3,0-0.7,0-1.4s0-1.3,0-1.7V8.3c0-0.4,0-0.9,0-1.6s0-1.1,0-1.3c0-1.4-0.1-2.4-0.4-2.8S121.8,2,121.2,2c0,0-0.1,0-0.1,0
		c-0.1,0-0.1,0-0.2,0V1.1z"/>
	<path d="M252.4,0.7c1.3,0,2.4,0.2,3.4,0.5c1,0.4,1.9,0.9,2.7,1.7c1,0.9,1.7,2,2.2,3.2c0.5,1.2,0.8,2.5,0.8,3.8
		c0,1.4-0.3,2.7-0.8,3.9c-0.5,1.2-1.3,2.3-2.3,3.2c-0.8,0.7-1.7,1.3-2.8,1.7c-1.1,0.4-2.1,0.6-3.2,0.6c-1.3,0-2.6-0.2-3.7-0.7
		c-1.1-0.5-2.1-1.2-3-2.2c-0.8-0.9-1.4-1.9-1.8-3c-0.4-1.1-0.6-2.2-0.6-3.5c0-1.3,0.2-2.6,0.7-3.7c0.5-1.2,1.2-2.2,2.1-3.1
		c0.8-0.8,1.8-1.4,2.9-1.8C250.1,0.9,251.2,0.7,252.4,0.7z M258.7,10.4c0-2.4-0.6-4.4-1.9-5.9s-2.8-2.3-4.7-2.3
		c-1.8,0-3.3,0.7-4.4,2c-1.1,1.3-1.6,3.1-1.6,5.3c0,2.5,0.6,4.5,1.9,6.1s2.8,2.4,4.7,2.4c1.8,0,3.3-0.7,4.4-2S258.7,12.7,258.7,10.4
		z"/>
	<path d="M365.8,1.1c0.9,0,1.6,0.1,2,0.1s0.8,0,1.1,0c0.5,0,1.1,0,1.6,0c0.5,0,1-0.1,1.6-0.1V2h-0.4c-0.7,0-1.1,0.2-1.3,0.7
		S370,4.1,370,5.8v2.5l0,9.1c0.5,0,0.9,0,1.3,0.1c0.4,0,0.8,0,1.2,0c2.2,0,3.7-0.2,4.3-0.6c0.6-0.4,1.2-1.2,1.5-2.4l0.9,0.3
		c-0.3,0.7-0.5,1.4-0.7,2.1c-0.2,0.7-0.4,1.4-0.5,2.1c-1.4,0-2.6-0.1-3.8-0.1c-1.2,0-2.2,0-3.3,0c-0.7,0-1.5,0-2.4,0
		c-0.9,0-1.9,0.1-3.1,0.1v-0.8c0.1,0,0.1,0,0.2,0s0.1,0,0.2,0c1.1,0,1.7-1.6,1.7-4.8c0-0.7,0-1.3,0-1.7l0-3.4c0-0.4,0-0.8,0-1.4
		s0-1,0-1.2c0-1.5-0.1-2.5-0.4-3c-0.2-0.5-0.7-0.7-1.4-0.7h-0.1V1.1z"/>
	<path d="M482.1,18.9V18c0,0,0.1,0,0.2,0c0.1,0,0.1,0,0.2,0c1.1,0,1.7-1.5,1.7-4.6c0-0.8,0-1.4,0-1.8l0-3.3c0-0.7,0-1.4,0-2.1
		s0-1.5,0-2.3c0-0.7-0.1-1.2-0.4-1.5c-0.3-0.3-0.7-0.4-1.4-0.4h-0.1V1.1c0.5,0,1.1,0,1.5,0.1c0.5,0,0.9,0,1.2,0c0.9,0,1.9,0,3-0.1
		C489.2,1,489.8,1,490,1c3.1,0,5.5,0.8,7.3,2.4s2.7,3.7,2.7,6.4c0,2.8-0.9,5-2.7,6.7s-4.2,2.5-7.1,2.5c-0.4,0-1.2,0-2.4-0.1
		c-1.2-0.1-2.1-0.1-2.8-0.1c-0.3,0-0.8,0-1.2,0C483.2,18.8,482.7,18.9,482.1,18.9z M486.5,17.4c0.6,0.1,1.2,0.2,1.8,0.3
		c0.6,0.1,1.2,0.1,1.8,0.1c2.3,0,4.1-0.6,5.4-1.9s1.9-3.1,1.9-5.5c0-2.5-0.7-4.5-2-6s-3.2-2.2-5.6-2.2c-0.5,0-1,0-1.5,0.1
		c-0.5,0-1,0.1-1.6,0.2c0,3-0.1,5.4-0.1,7.1s0,3.2,0,4.4V17.4z"/>
</g>
</svg>
